HIERARCHY
ROOT Hips
{
 OFFSET 0.000000 0.000000 0.000000
 CHANNELS 6 Xposition Yposition Zposition Yrotation Xrotation Zrotation
 JOINT Chest
 {
  OFFSET 0.000000 9.585900 0.002600
  CHANNELS 3 Yrotation Xrotation Zrotation
  JOINT Chest2
  {
   OFFSET 0.000000 9.601200 -0.005300
   CHANNELS 3 Yrotation Xrotation Zrotation
   JOINT Chest3
   {
    OFFSET 0.000000 9.561800 0.000000
    CHANNELS 3 Yrotation Xrotation Zrotation
    JOINT Chest4
    {
     OFFSET 0.000000 9.552100 0.000000
     CHANNELS 3 Yrotation Xrotation Zrotation
     JOINT Neck
     {
      OFFSET 0.000000 14.453000 0.000000
      CHANNELS 3 Yrotation Xrotation Zrotation
      JOINT Head
      {
       OFFSET 0.000000 8.936500 -0.011300
       CHANNELS 3 Yrotation Xrotation Zrotation
       End Site
       {
        OFFSET 0.000000 17.073600 -0.006000
       }
      }
     }
     JOINT RightCollar
     {
      OFFSET -2.921100 9.558500 0.000000
      CHANNELS 3 Yrotation Xrotation Zrotation
      JOINT RightShoulder
      {
       OFFSET -13.519700 0.000000 0.000000
       CHANNELS 3 Yrotation Xrotation Zrotation
       JOINT RightElbow
       {
        OFFSET 0.000000 -29.696600 0.000000
        CHANNELS 3 Yrotation Xrotation Zrotation
        JOINT RightWrist
        {
         OFFSET 0.000000 -24.004700 0.000000
         CHANNELS 3 Yrotation Xrotation Zrotation
         End Site
         {
          OFFSET 0.000000 -17.728500 0.000000
         }
        }
       }
      }
     }
     JOINT LeftCollar
     {
      OFFSET 2.921100 9.558500 0.000000
      CHANNELS 3 Yrotation Xrotation Zrotation
      JOINT LeftShoulder
      {
       OFFSET 13.519700 0.000000 0.000000
       CHANNELS 3 Yrotation Xrotation Zrotation
       JOINT LeftElbow
       {
        OFFSET 0.000000 -29.696600 0.000000
        CHANNELS 3 Yrotation Xrotation Zrotation
        JOINT LeftWrist
        {
         OFFSET 0.000000 -24.004700 0.000000
         CHANNELS 3 Yrotation Xrotation Zrotation
         End Site
         {
          OFFSET 0.000000 -17.728500 0.000000
         }
        }
       }
      }
     }
    }
   }
  }
 }
 JOINT RightHip
 {
  OFFSET -7.771700 -0.012900 -0.001300
  CHANNELS 3 Yrotation Xrotation Zrotation
  JOINT RightKnee
  {
   OFFSET 0.000000 -40.869800 0.001200
   CHANNELS 3 Yrotation Xrotation Zrotation
   JOINT RightAnkle
   {
    OFFSET 0.000000 -39.717900 0.002100
    CHANNELS 3 Yrotation Xrotation Zrotation
    JOINT RightToe
    {
     OFFSET 0.000000 -4.965400 11.033500
     CHANNELS 3 Yrotation Xrotation Zrotation
     End Site
     {
      OFFSET 0.000000 -1.423100 5.872300
     }
    }
   }
  }
 }
 JOINT LeftHip
 {
  OFFSET 7.771700 -0.012900 -0.001300
  CHANNELS 3 Yrotation Xrotation Zrotation
  JOINT LeftKnee
  {
   OFFSET 0.000000 -40.869800 0.001200
   CHANNELS 3 Yrotation Xrotation Zrotation
   JOINT LeftAnkle
   {
    OFFSET 0.000000 -39.717900 0.002100
    CHANNELS 3 Yrotation Xrotation Zrotation
    JOINT LeftToe
    {
     OFFSET 0.000000 -4.965400 11.033500
     CHANNELS 3 Yrotation Xrotation Zrotation
     End Site
     {
      OFFSET 0.000000 -1.423100 5.872300
     }
    }
   }
  }
 }
}
MOTION
Frames: 9
Frame Time: 0.008333
0.000000 85.388000 0.000000 0.000000 -5.767877 0.000000 0.000000 11.653817 0.000000 0.000000 -5.885947 0.000000 0.000000 -0.000000 0.000000 0.000000 -0.000000 0.000000 0.000000 12.528835 0.000000 0.000000 0.711642 0.000000 0.000000 -0.000000 0.000000 0.000000 0.000000 -90.000000 0.000000 -2.309062 0.000000 0.000000 2.309062 0.000000 0.000000 -0.000000 0.000000 0.000000 -0.000000 90.000000 0.000000 -2.309062 0.000000 0.000000 2.309062 0.000000 0.000000 8.520406 0.000000 0.000000 1.905762 0.000000 -0.000000 -4.658285 0.000000 0.000000 -0.000000 0.000000 0.000000 8.520406 0.000000 0.000000 1.905762 0.000000 -0.000000 -4.658285 0.000000 0.000000 -0.000000 0.000000
-128.133817 51.836486 -52.149666 177.128726 -29.521499 1.181163 -0.200319 12.801572 -0.349733 -0.021009 0.993101 0.028216 -0.050806 1.704231 0.039654 -0.355024 11.686762 0.230304 -2.666461 20.945989 -2.287402 -2.331079 -3.411478 -1.838768 -2.809968 12.471857 4.633458 -6.342096 -14.799530 -53.430532 110.134268 -20.841158 -170.418579 -4.332528 -11.544625 -5.350254 5.635573 9.347099 -5.883599 5.223782 -10.742678 55.798421 -104.931838 -34.035375 173.257037 10.862569 -12.797935 9.467931 -8.106730 -53.154213 2.083986 -90.452766 81.834044 -99.105669 -5.023204 -11.049936 8.006239 0.255966 -0.766385 0.094708 5.573325 -50.702758 -7.183813 31.983735 82.890838 38.050339 -2.534164 -10.967933 -1.976330 0.196797 0.608568 0.083353
-128.136628 51.836362 -52.151613 177.101491 -29.505355 1.187202 -0.201930 12.807042 -0.362560 -0.036168 1.002432 0.019550 -0.027456 1.685734 0.052216 -0.364428 11.681295 0.220112 -2.637975 20.937930 -2.277743 -2.309526 -3.422130 -1.836639 -2.817347 12.453973 4.652130 -6.883630 -15.206911 -52.955122 110.059429 -20.114739 -170.546491 -4.329999 -11.925146 -4.962191 5.633684 9.369981 -5.927022 5.721416 -10.986725 55.619306 -104.923000 -33.527032 173.418714 10.915666 -12.843416 9.117861 -8.102157 -53.172075 2.093482 -90.453677 81.851080 -99.103603 -5.017628 -11.041904 8.000958 0.253920 -0.772593 0.095800 5.594261 -50.719011 -7.176349 32.136373 82.888626 38.197583 -2.544997 -10.980354 -1.966394 0.197875 0.605593 0.083286
-128.140569 51.836438 -52.154029 177.088330 -29.485350 1.189613 -0.221393 12.811678 -0.384001 -0.030993 0.996151 0.021749 -0.023564 1.681739 0.055145 -0.355915 11.670066 0.221118 -2.620427 20.934759 -2.270780 -2.299137 -3.426812 -1.834982 -2.923345 12.423388 4.659762 -7.372547 -15.586908 -52.465418 109.957433 -19.367529 -170.678734 -4.311239 -12.370590 -4.736308 5.631560 9.399545 -5.979023 6.322697 -11.276949 55.422567 -104.918241 -32.928263 173.602771 10.940555 -12.857269 9.064384 -8.111694 -53.195079 2.102240 -90.471076 81.869738 -99.123806 -5.009737 -11.027665 8.001552 0.250208 -0.785796 0.092903 5.620928 -50.738625 -7.182560 32.194268 82.891545 38.257622 -2.555086 -10.988739 -1.955401 0.198512 0.605982 0.081659
-128.143802 51.836029 -52.155486 177.069625 -29.451862 1.188245 -0.216216 12.789306 -0.385015 -0.046177 1.007249 0.010461 -0.052952 1.693177 0.035178 -0.308608 11.639033 0.246387 -2.612180 20.931899 -2.268228 -2.276915 -3.429365 -1.830271 -3.044321 12.395540 4.659111 -7.879488 -15.940804 -51.945587 109.834214 -18.611806 -170.829068 -4.271493 -12.875390 -4.722862 5.645797 9.414243 -5.999914 7.017324 -11.588631 55.190762 -104.862139 -32.247223 173.790011 10.895064 -12.774490 9.425335 -8.127111 -53.229866 2.127257 -90.485830 81.891300 -99.142349 -5.003184 -11.017642 8.006008 0.243358 -0.793943 0.087033 5.647495 -50.773480 -7.181337 32.235386 82.897687 38.302801 -2.561862 -10.996831 -1.948561 0.198785 0.605792 0.082999
-128.144224 51.833863 -52.153482 177.035889 -29.388284 1.176143 -0.193965 12.738030 -0.368810 -0.054094 1.014747 0.004024 -0.060936 1.697178 0.027039 -0.350073 11.631818 0.198669 -2.548699 20.935375 -2.222617 -2.230967 -3.444197 -1.814464 -3.084635 12.359590 4.701347 -8.427010 -16.261545 -51.393951 109.695288 -17.857140 -170.993601 -4.167677 -13.413446 -4.970451 5.735260 9.443560 -6.017367 7.732622 -11.951453 55.010905 -104.705606 -31.511750 173.972877 10.718782 -12.536426 10.234746 -8.150931 -53.290099 2.187126 -90.481368 81.927917 -99.125201 -5.035930 -11.017830 7.995512 0.253039 -0.785946 0.085316 5.665701 -50.840250 -7.155314 32.257733 82.903948 38.331791 -2.560143 -11.010334 -1.945565 0.200999 0.607866 0.084574
-128.147460 51.833284 -52.153951 177.015865 -29.334325 1.176011 -0.235706 12.751772 -0.417858 -0.000346 0.953998 0.044049 -0.084854 1.718000 0.005436 -0.352645 11.616081 0.182483 -2.505790 20.932022 -2.188545 -2.208711 -3.436462 -1.797025 -3.175310 12.327763 4.718976 -8.966710 -16.538119 -50.826195 109.519332 -17.107690 -171.142791 -3.966175 -13.942042 -5.516070 5.806055 9.485331 -6.046282 8.434467 -12.302592 54.850724 -104.425699 -30.749573 174.161565 10.361024 -12.123656 11.466496 -8.176725 -53.342919 2.219787 -90.490644 81.964992 -99.135316 -5.048721 -11.021620 7.988843 0.249805 -0.780833 0.081894 5.706214 -50.892780 -7.170664 32.282150 82.906575 38.371555 -2.559149 -11.019034 -1.945416 0.198794 0.608998 0.086560
-128.149024 51.833794 -52.156004 176.974863 -29.284605 1.178647 -0.227933 12.741895 -0.433705 0.001326 0.947953 0.045836 -0.086588 1.715119 -0.000203 -0.354530 11.598600 0.165869 -2.461320 20.928692 -2.150785 -2.196253 -3.397654 -1.731456 -3.268962 12.301203 4.741667 -9.492685 -16.769628 -50.262031 109.290293 -16.370300 -171.269752 -3.635601 -14.389501 -6.390110 5.870778 9.493352 -6.030815 9.155273 -12.582768 54.675918 -104.025152 -29.985089 174.369977 9.810364 -11.572993 13.079970 -8.192839 -53.389985 2.268642 -90.483712 81.986522 -99.133931 -5.045697 -11.023417 7.988214 0.250170 -0.777123 0.080542 5.735070 -50.943505 -7.154859 32.395594 82.914170 38.484948 -2.565231 -11.034440 -1.941579 0.196305 0.607743 0.086341
-128.149571 51.832937 -52.155415 176.930153 -29.210421 1.178192 -0.218178 12.710014 -0.445859 -0.031040 0.981027 0.015323 -0.052793 1.672077 0.025882 -0.354204 11.578898 0.149181 -2.465158 20.954417 -2.113810 -2.148128 -3.417134 -1.712052 -3.367904 12.283995 4.770481 -10.010011 -16.956411 -49.726382 109.014573 -15.673101 -171.391546 -3.139194 -14.695842 -7.617133 5.942274 9.503551 -6.013074 9.840481 -12.816873 54.509550 -103.481254 -29.227943 174.586980 9.086461 -10.912833 15.036482 -8.245785 -53.460082 2.353353 -90.450208 82.036511 -99.115643 -5.073622 -11.025035 7.985518 0.270095 -0.772147 0.084406 5.766326 -51.019512 -7.135781 32.444490 82.921847 38.534262 -2.563218 -11.043351 -1.937729 0.190911 0.606039 0.085592
